<svg width="32" height="33" viewBox="0 0 32 33" fill="none" xmlns="http://www.w3.org/2000/svg">
<g clip-path="url(#clip0_29_514)">
<path d="M28.5877 27.8597C34.0402 21.5708 32.1431 11.7939 24.7275 7.97994C22.5859 3.8328 18.2573 0.990967 13.2772 0.990967C6.17621 0.990967 0.399184 6.76836 0.399184 13.8697C0.399184 16.996 1.50584 19.9528 3.53395 22.2922L0.672238 25.1163C0.0922352 25.6888 0.494015 26.6833 1.3125 26.6873L8.22335 26.7202C10.6048 30.1856 14.539 32.316 18.8445 32.316C18.8533 32.316 30.8022 32.2549 30.8092 32.2548C31.625 32.2509 32.0313 31.2582 31.4494 30.6839L28.5877 27.8597ZM5.46197 21.6714C3.38075 19.5864 2.23451 16.8156 2.23451 13.8697C2.23451 7.78042 7.18827 2.82642 13.2772 2.82642C19.3661 2.82642 24.3199 7.78042 24.3199 13.8697C24.3199 19.7048 19.7023 24.9601 12.9191 24.9071L3.54252 24.8624L5.45708 22.973C5.81915 22.6156 5.82129 22.0315 5.46197 21.6714ZM18.8445 30.4805C15.6243 30.4805 12.6311 29.1046 10.5504 26.7313C14.0441 26.7543 13.1167 26.7485 13.2772 26.7485C21.5613 26.7485 27.747 18.9778 25.8004 10.8647C30.8764 15.0112 31.2922 22.598 26.6597 27.239C26.3003 27.599 26.3025 28.1832 26.6646 28.5405L28.5792 30.43C28.5719 30.43 18.8516 30.4805 18.8445 30.4805Z" fill="white"/>
<path d="M7.80145 11.1471H18.8136C19.3204 11.1471 19.7312 10.7362 19.7312 10.2294C19.7312 9.72254 19.3204 9.31165 18.8136 9.31165H7.80145C7.29462 9.31165 6.88379 9.72254 6.88379 10.2294C6.88379 10.7362 7.29469 11.1471 7.80145 11.1471Z" fill="white"/>
<path d="M7.80145 14.818H18.8136C19.3204 14.818 19.7312 14.4071 19.7312 13.9003C19.7312 13.3934 19.3204 12.9825 18.8136 12.9825H7.80145C7.29462 12.9825 6.88379 13.3934 6.88379 13.9003C6.88379 14.4071 7.29469 14.818 7.80145 14.818Z" fill="white"/>
<path d="M7.80145 18.4889H18.8136C19.3204 18.4889 19.7312 18.078 19.7312 17.5712C19.7312 17.0643 19.3204 16.6534 18.8136 16.6534H7.80145C7.29462 16.6534 6.88379 17.0643 6.88379 17.5712C6.88379 18.078 7.29469 18.4889 7.80145 18.4889Z" fill="white"/>
</g>
<defs>
<clipPath id="clip0_29_514">
<rect width="31.325" height="31.325" fill="white" transform="translate(0.398438 0.990967)"/>
</clipPath>
</defs>
</svg>
