<svg width="26" height="27" viewBox="0 0 26 27" fill="none" xmlns="http://www.w3.org/2000/svg">
<g clip-path="url(#clip0_1_1036)">
<path d="M20.6321 14.6089L23.685 14.6089C24.1065 14.6089 24.4482 14.2672 24.4482 13.8456L24.4482 1.6342C24.4482 1.21272 24.1065 0.87096 23.685 0.87096L20.6321 0.87096C20.2107 0.87096 19.8689 1.21267 19.8689 1.6342L19.8689 13.8457C19.8689 14.2672 20.2106 14.6089 20.6321 14.6089Z" fill="white"/>
<path d="M1.56717 12.5859C1.70179 13.7698 2.80775 14.609 3.99933 14.609L9.94961 14.609C9.44394 15.5145 9.17251 18.0755 9.18454 19.1217C9.2045 20.8535 10.6386 22.2412 12.3704 22.2412L13.0002 22.2412C13.422 22.2412 13.7634 21.8999 13.7634 21.478C13.7634 19.7131 14.4507 16.5275 15.7467 15.2313C16.6191 14.359 17.3649 14.0428 18.3428 13.5541L18.3428 2.10206C16.8456 1.60304 14.9447 0.871029 12.0472 0.871028L7.05463 0.871028C5.40958 0.871028 4.12837 2.39461 4.76582 4.00438C3.79463 4.26895 3.07842 5.15965 3.07842 6.21356C3.07842 6.51098 3.1358 6.79566 3.23939 7.05729C1.60277 7.5032 1.00035 9.52403 2.13627 10.7929C1.71896 11.2591 1.48881 11.8968 1.56717 12.5859Z" fill="white"/>
</g>
<defs>
<clipPath id="clip0_1_1036">
<rect width="26" height="26" fill="white" transform="translate(26 26.8711) rotate(-180)"/>
</clipPath>
</defs>
</svg>
