<svg width="54" height="54" viewBox="0 0 54 54" fill="none" xmlns="http://www.w3.org/2000/svg">
<rect width="54" height="54" rx="10" fill="#3B5998"/>
<path d="M30.9512 27.6875H28.4609V35.125H25.1406V27.6875H22.4512V24.5996H25.1406V22.2754C25.1406 21.39 25.3066 20.6374 25.6387 20.0176C25.9707 19.3978 26.4355 18.9329 27.0332 18.623C27.653 18.291 28.3613 18.125 29.1582 18.125C29.5124 18.125 29.8887 18.1471 30.2871 18.1914C30.6855 18.2135 30.9954 18.2467 31.2168 18.291L31.5488 18.3242V20.9473H30.2207C29.6009 20.9473 29.1471 21.1133 28.8594 21.4453C28.5938 21.7552 28.4609 22.1426 28.4609 22.6074V24.5996H31.416L30.9512 27.6875Z" fill="white"/>
</svg>
