<svg width="32" height="32" viewBox="0 0 32 32" fill="none" xmlns="http://www.w3.org/2000/svg">
<g clip-path="url(#clip0_29_493)">
<path d="M28.9457 1.36792C28.6077 1.36792 28.3338 1.6418 28.3338 1.97974V2.82481H26.877V1.97974C26.877 1.6418 26.6028 1.36792 26.2651 1.36792C25.9272 1.36792 25.6533 1.6418 25.6533 1.97974V3.43663C25.6533 3.77456 25.9272 4.04844 26.2651 4.04844H28.9457C29.2834 4.04844 29.5575 3.77456 29.5575 3.43663V1.97974C29.5575 1.6418 29.2834 1.36792 28.9457 1.36792Z" fill="white"/>
<path d="M28.9457 13.8547H26.2651C25.9272 13.8547 25.6533 14.1286 25.6533 14.4666V17.1471C25.6533 17.485 25.9272 17.7589 26.2651 17.7589H28.9457C29.2834 17.7589 29.5575 17.485 29.5575 17.1471V14.4666C29.5575 14.1286 29.2834 13.8547 28.9457 13.8547ZM28.3338 16.5353H26.877V15.0784H28.3338V16.5353Z" fill="white"/>
<path d="M28.9457 6.99951H26.2651C25.9272 6.99951 25.6533 7.2734 25.6533 7.61133V10.2919C25.6533 10.6298 25.9272 10.9037 26.2651 10.9037H28.9457C29.2834 10.9037 29.5575 10.6298 29.5575 10.2919V7.61133C29.5575 7.2734 29.2834 6.99951 28.9457 6.99951ZM28.3338 9.68004H26.877V8.22315H28.3338V9.68004Z" fill="white"/>
<path d="M28.9457 20.71H26.2651C25.9272 20.71 25.6533 20.9838 25.6533 21.3218V24.0023C25.6533 24.3402 25.9272 24.6141 26.2651 24.6141H28.9457C29.2834 24.6141 29.5575 24.3402 29.5575 24.0023V21.3218C29.5575 20.9838 29.2834 20.71 28.9457 20.71ZM28.3338 23.3905H26.877V21.9336H28.3338V23.3905Z" fill="white"/>
<path d="M28.9457 27.5652H26.2651C25.9272 27.5652 25.6533 27.8391 25.6533 28.177V29.6339C25.6533 29.9718 25.9272 30.2457 26.2651 30.2457C26.6028 30.2457 26.877 29.9718 26.877 29.6339V28.7888H28.3338V29.6339C28.3338 29.9718 28.6077 30.2457 28.9457 30.2457C29.2834 30.2457 29.5575 29.9718 29.5575 29.6339V28.177C29.5575 27.8391 29.2834 27.5652 28.9457 27.5652Z" fill="white"/>
<path d="M5.81602 1.36792C5.47808 1.36792 5.2042 1.6418 5.2042 1.97974V2.82481H3.74707V1.97974C3.74707 1.6418 3.47319 1.36792 3.13525 1.36792C2.79756 1.36792 2.52344 1.6418 2.52344 1.97974V3.43663C2.52344 3.77456 2.79756 4.04844 3.13525 4.04844H5.81602C6.15371 4.04844 6.42783 3.77456 6.42783 3.43663V1.97974C6.42783 1.6418 6.15371 1.36792 5.81602 1.36792Z" fill="white"/>
<path d="M5.81602 13.8547H3.13525C2.79756 13.8547 2.52344 14.1286 2.52344 14.4666V17.1471C2.52344 17.485 2.79756 17.7589 3.13525 17.7589H5.81602C6.15371 17.7589 6.42783 17.485 6.42783 17.1471V14.4666C6.42783 14.1286 6.15371 13.8547 5.81602 13.8547ZM5.2042 16.5353H3.74707V15.0784H5.2042V16.5353Z" fill="white"/>
<path d="M5.81602 6.99951H3.13525C2.79756 6.99951 2.52344 7.2734 2.52344 7.61133V10.2919C2.52344 10.6298 2.79756 10.9037 3.13525 10.9037H5.81602C6.15371 10.9037 6.42783 10.6298 6.42783 10.2919V7.61133C6.42783 7.2734 6.15371 6.99951 5.81602 6.99951ZM5.2042 9.68004H3.74707V8.22315H5.2042V9.68004Z" fill="white"/>
<path d="M5.81602 20.71H3.13525C2.79756 20.71 2.52344 20.9838 2.52344 21.3218V24.0023C2.52344 24.3402 2.79756 24.6141 3.13525 24.6141H5.81602C6.15371 24.6141 6.42783 24.3402 6.42783 24.0023V21.3218C6.42783 20.9838 6.15371 20.71 5.81602 20.71ZM5.2042 23.3905H3.74707V21.9336H5.2042V23.3905Z" fill="white"/>
<path d="M5.81602 27.5652H3.13525C2.79756 27.5652 2.52344 27.8391 2.52344 28.177V29.6339C2.52344 29.9718 2.79756 30.2457 3.13525 30.2457C3.47319 30.2457 3.74707 29.9718 3.74707 29.6339V28.7888H5.2042V29.6339C5.2042 29.9718 5.47808 30.2457 5.81602 30.2457C6.15371 30.2457 6.42783 29.9718 6.42783 29.6339V28.177C6.42783 27.8391 6.15371 27.5652 5.81602 27.5652Z" fill="white"/>
<path d="M9.03558 25.2842H22.767C23.7247 25.2842 24.5036 24.5053 24.5036 23.5477V13.0089C24.5036 12.671 24.2297 12.3971 23.8917 12.3971C23.554 12.3971 23.2799 12.671 23.2799 13.0089V23.5477C23.2799 23.8304 23.05 24.0606 22.767 24.0606H9.03558C8.75261 24.0606 8.52246 23.8304 8.52246 23.5477V8.06585C8.52246 7.78313 8.75261 7.55298 9.03558 7.55298H22.767C23.05 7.55298 23.2799 7.78313 23.2799 8.06585V8.12632C23.2799 8.46425 23.554 8.73814 23.8917 8.73814C24.2297 8.73814 24.5036 8.46425 24.5036 8.12632V8.06585C24.5036 7.10822 23.7247 6.32935 22.767 6.32935H9.03558C8.07794 6.32935 7.29883 7.10822 7.29883 8.06585V23.5477C7.29883 24.5053 8.07794 25.2842 9.03558 25.2842Z" fill="white"/>
<path d="M24.1066 1.36792C23.7687 1.36792 23.4948 1.6418 23.4948 1.97974V2.31193C23.4948 2.5949 23.2646 2.82481 22.9819 2.82481H9.03558C8.75261 2.82481 8.52246 2.5949 8.52246 2.31193V1.97974C8.52246 1.6418 8.24858 1.36792 7.91065 1.36792C7.57295 1.36792 7.29883 1.6418 7.29883 1.97974V2.31193C7.29883 3.26957 8.07794 4.04844 9.03558 4.04844H22.9819C23.9393 4.04844 24.7184 3.26957 24.7184 2.31193V1.97974C24.7184 1.6418 24.4445 1.36792 24.1066 1.36792Z" fill="white"/>
<path d="M22.9819 27.5652H9.03558C8.07794 27.5652 7.29883 28.3441 7.29883 29.3017V29.6339C7.29883 29.9718 7.57295 30.2457 7.91065 30.2457C8.24858 30.2457 8.52246 29.9718 8.52246 29.6339V29.3017C8.52246 29.0187 8.75261 28.7888 9.03558 28.7888H22.9819C23.2646 28.7888 23.4948 29.0187 23.4948 29.3017V29.6339C23.4948 29.9718 23.7687 30.2457 24.1066 30.2457C24.4445 30.2457 24.7184 29.9718 24.7184 29.6339V29.3017C24.7184 28.3441 23.9393 27.5652 22.9819 27.5652Z" fill="white"/>
<path d="M1.01025 27.5255C0.672321 27.5255 0.398438 27.7994 0.398438 28.1373V29.6339C0.398438 29.9718 0.672321 30.2457 1.01025 30.2457C1.34819 30.2457 1.62207 29.9718 1.62207 29.6339V28.1373C1.62207 27.7994 1.34819 27.5255 1.01025 27.5255Z" fill="white"/>
<path d="M1.01025 1.36792C0.672321 1.36792 0.398438 1.6418 0.398438 1.97974V22.9773C0.398438 23.3152 0.672321 23.5891 1.01025 23.5891C1.34819 23.5891 1.62207 23.3152 1.62207 22.9773V1.97974C1.62207 1.6418 1.34819 1.36792 1.01025 1.36792Z" fill="white"/>
<path d="M31.1118 1.36792C30.7739 1.36792 30.5 1.6418 30.5 1.97974V29.6339C30.5 29.9718 30.7739 30.2457 31.1118 30.2457C31.4498 30.2457 31.7236 29.9718 31.7236 29.6339V1.97974C31.7236 1.6418 31.4498 1.36792 31.1118 1.36792Z" fill="white"/>
<path d="M1.57528 25.3874C1.47371 25.1439 1.21966 24.988 0.956051 25.0119C0.703198 25.0349 0.485716 25.2179 0.419755 25.4631C0.354749 25.7057 0.448912 25.9731 0.654205 26.1187C0.863561 26.2671 1.14677 26.2695 1.35827 26.1244C1.59392 25.9629 1.68306 25.6505 1.57528 25.3874Z" fill="white"/>
<path d="M24.4004 10.1213C24.2546 9.90282 23.9767 9.80077 23.7241 9.87319C23.481 9.94273 23.3039 10.1595 23.2824 10.4112C23.26 10.6731 23.416 10.9262 23.6584 11.0261C23.8899 11.1219 24.1662 11.0636 24.3378 10.8801C24.5314 10.6731 24.5551 10.3571 24.4004 10.1213Z" fill="white"/>
</g>
<defs>
<clipPath id="clip0_29_493">
<rect width="31.325" height="31.325" fill="white" transform="translate(0.398438 0.144287)"/>
</clipPath>
</defs>
</svg>
