<svg width="32" height="32" viewBox="0 0 32 32" fill="none" xmlns="http://www.w3.org/2000/svg">
<g clip-path="url(#clip0_8_2207)">
<path d="M25.6703 14.5284C27.5375 13.3112 28.7746 11.205 28.7746 8.81457C28.7746 5.05644 25.7171 1.99902 21.959 1.99902C19.4434 1.99902 17.2418 3.36916 16.061 5.40226C14.8801 3.36916 12.6788 1.99902 10.1631 1.99902C6.405 1.99902 3.34735 5.05644 3.34735 8.81457C3.34735 11.205 4.58437 13.3112 6.4516 14.5284C2.90282 15.9922 0.398438 19.4886 0.398438 23.5596V26.9999C0.398438 28.8611 1.91268 30.3751 3.77371 30.3751H28.3482C30.2095 30.3751 31.7235 28.8611 31.7235 27.0001V23.5596C31.7235 19.4886 29.2191 15.9922 25.6703 14.5284ZM21.959 3.83447C24.705 3.83447 26.9391 6.06856 26.9391 8.81457C26.9391 11.5608 24.705 13.7949 21.959 13.7949C19.2128 13.7949 16.9787 11.5608 16.9787 8.81457C16.9787 6.06856 19.2128 3.83447 21.959 3.83447ZM16.0576 15.7802C15.3913 15.274 14.6586 14.8517 13.8747 14.5284C14.7711 13.944 15.5223 13.1546 16.061 12.2274C16.5994 13.1542 17.3501 13.9431 18.2458 14.5274C17.4693 14.8467 16.7337 15.2668 16.0576 15.7802ZM5.1828 8.81457C5.1828 6.06856 7.41689 3.83447 10.1631 3.83447C12.9091 3.83447 15.1432 6.06856 15.1432 8.81457C15.1432 11.5608 12.9091 13.7949 10.1631 13.7949C7.41689 13.7949 5.1828 11.5608 5.1828 8.81457ZM15.5693 28.5397H3.77371C2.92457 28.5397 2.23389 27.849 2.23389 27.0001V23.5596C2.23389 19.1873 5.79103 15.6304 10.1631 15.6304C14.5352 15.6304 18.0924 19.1875 18.0924 23.5596V27.0001C18.0924 27.849 17.4015 28.5397 16.5526 28.5397H15.5693ZM29.888 27.0001C29.888 27.849 29.1973 28.5397 28.3482 28.5397H19.5545C19.7926 28.0777 19.9278 27.5546 19.9278 27.0001V23.5596C19.9278 21.0602 18.9833 18.7774 17.4335 17.0485C18.7551 16.1289 20.3303 15.6304 21.959 15.6304C26.3311 15.6304 29.888 19.1873 29.888 23.5596V27.0001Z" fill="white"/>
</g>
<defs>
<clipPath id="clip0_8_2207">
<rect width="31.325" height="31.325" fill="white" transform="translate(0.398438 0.530762)"/>
</clipPath>
</defs>
</svg>
