<svg width="32" height="32" viewBox="0 0 32 32" fill="none" xmlns="http://www.w3.org/2000/svg">
<g clip-path="url(#clip0_8_2283)">
<path d="M30.9398 13.9418C30.9388 13.9411 30.9381 13.9401 30.9374 13.9394L18.1592 1.16173C17.6145 0.616829 16.8904 0.316895 16.1201 0.316895C15.3499 0.316895 14.6257 0.616829 14.0808 1.16173L1.30935 13.933C1.30505 13.9373 1.30051 13.9418 1.29644 13.9461C0.177963 15.071 0.179874 16.8962 1.30194 18.0183C1.81458 18.5312 2.4914 18.828 3.21531 18.8593C3.24494 18.8622 3.27458 18.8636 3.30445 18.8636H3.8135V28.267C3.8135 30.128 5.32775 31.642 7.18878 31.642H12.188C12.6949 31.642 13.1057 31.2309 13.1057 30.7243V23.3519C13.1057 22.5027 13.7967 21.812 14.6458 21.812H17.5945C18.4436 21.812 19.1343 22.5027 19.1343 23.3519V30.7243C19.1343 31.2309 19.5451 31.642 20.052 31.642H25.0512C26.9125 31.642 28.4265 30.128 28.4265 28.267V18.8636H28.8988C29.6688 18.8636 30.3929 18.5637 30.9381 18.0185C32.0613 16.8948 32.0618 15.0663 30.9398 13.9418ZM29.6401 16.7208C29.442 16.9189 29.1786 17.0281 28.8988 17.0281H27.5088C27.0019 17.0281 26.5911 17.439 26.5911 17.9459V28.267C26.5911 29.1158 25.9004 29.8065 25.0512 29.8065H20.9697V23.3519C20.9697 21.4908 19.4557 19.9766 17.5945 19.9766H14.6458C12.7845 19.9766 11.2703 21.4908 11.2703 23.3519V29.8065H7.18878C6.33988 29.8065 5.64896 29.1158 5.64896 28.267V17.9459C5.64896 17.439 5.23813 17.0281 4.73123 17.0281H3.36515C3.35081 17.0272 3.33671 17.0265 3.32213 17.0262C3.04873 17.0214 2.79229 16.9129 2.60014 16.7206C2.19147 16.3119 2.19147 15.6468 2.60014 15.2379C2.60038 15.2379 2.60038 15.2376 2.60062 15.2374L2.60134 15.2367L15.379 2.45945C15.5769 2.26133 15.84 2.15235 16.1201 2.15235C16.4 2.15235 16.6631 2.26133 16.8612 2.45945L29.6361 15.234C29.638 15.2359 29.6401 15.2379 29.642 15.2398C30.0486 15.6492 30.0478 16.3128 29.6401 16.7208Z" fill="white"/>
</g>
<defs>
<clipPath id="clip0_8_2283">
<rect width="31.325" height="31.325" fill="white" transform="translate(0.398438 0.377441)"/>
</clipPath>
</defs>
</svg>
