<svg width="54" height="54" viewBox="0 0 54 54" fill="none" xmlns="http://www.w3.org/2000/svg">
<rect width="54" height="54" rx="10" fill="url(#paint0_linear_427_30)"/>
<path d="M24.3105 24.9355C25.0632 24.1829 25.9707 23.8066 27.0332 23.8066C28.0957 23.8066 28.9922 24.1829 29.7227 24.9355C30.4753 25.666 30.8516 26.5625 30.8516 27.625C30.8516 28.6875 30.4753 29.5951 29.7227 30.3477C28.9922 31.0781 28.0957 31.4434 27.0332 31.4434C25.9707 31.4434 25.0632 31.0781 24.3105 30.3477C23.5801 29.5951 23.2148 28.6875 23.2148 27.625C23.2148 26.5625 23.5801 25.666 24.3105 24.9355ZM25.2734 29.3848C25.7604 29.8717 26.347 30.1152 27.0332 30.1152C27.7194 30.1152 28.306 29.8717 28.793 29.3848C29.2799 28.8978 29.5234 28.3112 29.5234 27.625C29.5234 26.9388 29.2799 26.3522 28.793 25.8652C28.306 25.3783 27.7194 25.1348 27.0332 25.1348C26.347 25.1348 25.7604 25.3783 25.2734 25.8652C24.7865 26.3522 24.543 26.9388 24.543 27.625C24.543 28.3112 24.7865 28.8978 25.2734 29.3848ZM31.6152 23.043C31.7923 23.1979 31.8809 23.3971 31.8809 23.6406C31.8809 23.8841 31.7923 24.0944 31.6152 24.2715C31.4603 24.4486 31.2611 24.5371 31.0176 24.5371C30.7741 24.5371 30.5638 24.4486 30.3867 24.2715C30.2096 24.0944 30.1211 23.8841 30.1211 23.6406C30.1211 23.3971 30.2096 23.1979 30.3867 23.043C30.5638 22.8659 30.7741 22.7773 31.0176 22.7773C31.2611 22.7773 31.4603 22.8659 31.6152 23.043ZM34.4375 24.5703C34.4596 25.168 34.4707 26.1862 34.4707 27.625C34.4707 29.0638 34.4596 30.082 34.4375 30.6797C34.3711 32.0299 33.9616 33.0814 33.209 33.834C32.4785 34.5645 31.4382 34.9518 30.0879 34.9961C29.4902 35.0404 28.472 35.0625 27.0332 35.0625C25.5944 35.0625 24.5762 35.0404 23.9785 34.9961C22.6283 34.9297 21.5879 34.5312 20.8574 33.8008C20.5697 33.5352 20.3372 33.2253 20.1602 32.8711C19.9831 32.5169 19.8503 32.1738 19.7617 31.8418C19.6953 31.5098 19.6621 31.1224 19.6621 30.6797C19.6178 30.082 19.5957 29.0638 19.5957 27.625C19.5957 26.1862 19.6178 25.1569 19.6621 24.5371C19.7285 23.209 20.127 22.1797 20.8574 21.4492C21.5879 20.6966 22.6283 20.2871 23.9785 20.2207C24.5762 20.1986 25.5944 20.1875 27.0332 20.1875C28.472 20.1875 29.4902 20.1986 30.0879 20.2207C31.4382 20.2871 32.4785 20.6966 33.209 21.4492C33.9616 22.1797 34.3711 23.2201 34.4375 24.5703ZM32.8438 32.0078C32.9102 31.8307 32.9655 31.6094 33.0098 31.3438C33.054 31.056 33.0872 30.724 33.1094 30.3477C33.1315 29.9492 33.1426 29.6283 33.1426 29.3848C33.1426 29.1413 33.1426 28.7982 33.1426 28.3555C33.1426 27.9128 33.1426 27.6693 33.1426 27.625C33.1426 27.5586 33.1426 27.3151 33.1426 26.8945C33.1426 26.4518 33.1426 26.1087 33.1426 25.8652C33.1426 25.6217 33.1315 25.3118 33.1094 24.9355C33.0872 24.5371 33.054 24.2051 33.0098 23.9395C32.9655 23.6517 32.9102 23.4193 32.8438 23.2422C32.5781 22.556 32.1022 22.0801 31.416 21.8145C31.2389 21.748 31.0065 21.6927 30.7188 21.6484C30.4531 21.6042 30.1211 21.571 29.7227 21.5488C29.3464 21.5267 29.0365 21.5156 28.793 21.5156C28.5716 21.5156 28.2285 21.5156 27.7637 21.5156C27.321 21.5156 27.0775 21.5156 27.0332 21.5156C26.9889 21.5156 26.7454 21.5156 26.3027 21.5156C25.86 21.5156 25.5169 21.5156 25.2734 21.5156C25.0299 21.5156 24.709 21.5267 24.3105 21.5488C23.9342 21.571 23.6022 21.6042 23.3145 21.6484C23.0488 21.6927 22.8275 21.748 22.6504 21.8145C21.9642 22.0801 21.4883 22.556 21.2227 23.2422C21.1562 23.4193 21.1009 23.6517 21.0566 23.9395C21.0124 24.2051 20.9792 24.5371 20.957 24.9355C20.9349 25.3118 20.9238 25.6217 20.9238 25.8652C20.9238 26.0866 20.9238 26.4297 20.9238 26.8945C20.9238 27.3372 20.9238 27.5807 20.9238 27.625C20.9238 27.7135 20.9238 27.9238 20.9238 28.2559C20.9238 28.5658 20.9238 28.8314 20.9238 29.0527C20.9238 29.252 20.9238 29.5176 20.9238 29.8496C20.946 30.1816 20.9681 30.4694 20.9902 30.7129C21.0124 30.9342 21.0456 31.1667 21.0898 31.4102C21.1341 31.6536 21.1784 31.8529 21.2227 32.0078C21.5104 32.694 21.9863 33.1699 22.6504 33.4355C22.8275 33.502 23.0488 33.5573 23.3145 33.6016C23.6022 33.6458 23.9342 33.679 24.3105 33.7012C24.709 33.7233 25.0189 33.7344 25.2402 33.7344C25.4837 33.7344 25.8268 33.7344 26.2695 33.7344C26.7344 33.7344 26.9889 33.7344 27.0332 33.7344C27.0996 33.7344 27.3431 33.7344 27.7637 33.7344C28.2064 33.7344 28.5495 33.7344 28.793 33.7344C29.0365 33.7344 29.3464 33.7233 29.7227 33.7012C30.1211 33.679 30.4531 33.6458 30.7188 33.6016C31.0065 33.5573 31.2389 33.502 31.416 33.4355C32.1022 33.1478 32.5781 32.6719 32.8438 32.0078Z" fill="white"/>
<defs>
<linearGradient id="paint0_linear_427_30" x1="49" y1="2" x2="8" y2="54" gradientUnits="userSpaceOnUse">
<stop stop-color="#532CD7"/>
<stop offset="0.600362" stop-color="#E32A47"/>
<stop offset="1" stop-color="#EF7230"/>
</linearGradient>
</defs>
</svg>
