<svg width="27" height="26" viewBox="0 0 27 26" fill="none" xmlns="http://www.w3.org/2000/svg">
<g id="like 1" clip-path="url(#clip0_1_1045)">
<g id="Group">
<g id="Group_2">
<path id="Vector" d="M6.239 12.2622H3.18609C2.76461 12.2622 2.42285 12.6039 2.42285 13.0254V25.2369C2.42285 25.6584 2.76456 26.0001 3.18609 26.0001H6.23895C6.66044 26.0001 7.00219 25.6584 7.00219 25.2369V13.0254C7.00219 12.6039 6.66054 12.2622 6.239 12.2622Z" fill="white"/>
</g>
</g>
<g id="Group_3">
<g id="Group_4">
<path id="Vector_2" d="M25.3039 14.2852C25.1693 13.1012 24.0633 12.2621 22.8718 12.2621H16.9215C17.4272 11.3566 17.6986 8.79556 17.6865 7.74937C17.6666 6.01763 16.2325 4.62988 14.5007 4.62988H13.8709C13.4491 4.62988 13.1077 4.97123 13.1077 5.39312C13.1077 7.15802 12.4204 10.3436 11.1244 11.6398C10.252 12.5121 9.50621 12.8282 8.52832 13.317V24.769C10.0255 25.2681 11.9264 26.0001 14.8239 26.0001H19.8165C21.4615 26.0001 22.7427 24.4765 22.1053 22.8667C23.0765 22.6021 23.7927 21.7114 23.7927 20.6575C23.7927 20.3601 23.7353 20.0754 23.6317 19.8138C25.2683 19.3679 25.8707 17.3471 24.7348 16.0782C25.1521 15.612 25.3823 14.9743 25.3039 14.2852Z" fill="white"/>
</g>
</g>
</g>
<defs>
<clipPath id="clip0_1_1045">
<rect width="26" height="26" fill="white" transform="translate(0.871094)"/>
</clipPath>
</defs>
</svg>
