<svg width="32" height="33" viewBox="0 0 32 33" fill="none" xmlns="http://www.w3.org/2000/svg">
<g clip-path="url(#clip0_8_2285)">
<path d="M1.64429 31.6165H6.17132C6.46429 31.6165 6.70135 31.3795 6.70135 31.0865V30.8668H8.25522C8.88981 30.8657 9.50939 31.0588 10.0309 31.4204C10.7294 31.9056 11.5602 32.1647 12.4106 32.1624H15.6514C17.3507 32.1605 18.7278 30.7832 18.7299 29.0839V23.2698C18.7262 21.5718 17.3494 20.1967 15.6514 20.1954H14.5649C14.6565 19.9454 14.7034 19.6812 14.7036 19.4146V16.7836C14.7031 16.2008 14.4666 15.6433 14.0483 15.2375C13.6298 14.832 13.0651 14.613 12.4826 14.6304C11.305 14.6943 10.3852 15.6723 10.3937 16.8514V17.0176C10.3963 18.3421 9.67296 19.5614 8.50963 20.1942H6.70135V19.9744C6.70135 19.6817 6.46429 19.4444 6.17132 19.4444H1.64429C1.35158 19.4444 1.11426 19.6817 1.11426 19.9744V31.0862C1.11426 31.3792 1.35158 31.6165 1.64429 31.6165ZM8.64084 21.2545C8.72366 21.2542 8.80544 21.2348 8.87946 21.1973C10.4605 20.4048 11.4577 18.7863 11.4541 17.0176V16.8514C11.4409 16.2435 11.9075 15.7323 12.5141 15.6899C12.8115 15.6814 13.0995 15.7934 13.3128 16.0007C13.525 16.2057 13.6446 16.4886 13.6438 16.7836V19.4136C13.6428 19.6998 13.5403 19.9765 13.3542 20.1942H11.9416C11.6489 20.1942 11.4116 20.4315 11.4116 20.7242C11.4116 21.0169 11.6489 21.2542 11.9416 21.2542H15.6519C16.7647 21.2547 17.6675 22.1554 17.6703 23.2682V29.0836C17.669 30.1978 16.766 31.1007 15.6519 31.102H12.4096C11.775 31.1033 11.1551 30.91 10.6342 30.5477C9.93539 30.0634 9.1054 29.8044 8.25522 29.8054H6.70213V21.2542L8.64084 21.2545ZM2.17433 20.5047H5.64128V30.5565H2.17433V20.5047Z" fill="white"/>
<path d="M4.48706 27.3184C4.19436 27.3184 3.95703 27.5557 3.95703 27.8484V29.1875C3.95703 29.4804 4.19436 29.7175 4.48706 29.7175C4.77977 29.7175 5.0171 29.4804 5.0171 29.1875V27.8484C5.0171 27.5557 4.77977 27.3184 4.48706 27.3184Z" fill="white"/>
<path d="M16.4952 12.8056H17.582C17.4901 13.0556 17.4432 13.3199 17.443 13.5864V16.2164C17.4443 17.4074 18.4109 18.372 19.6022 18.3707H19.664C20.8419 18.3068 21.7614 17.329 21.7531 16.1497V15.9835C21.7498 14.6587 22.4729 13.4387 23.6364 12.8056H25.445V13.0253C25.445 13.3181 25.6823 13.5554 25.975 13.5554H30.502C30.7948 13.5554 31.0321 13.3181 31.0321 13.0253V1.91301C31.0321 1.6203 30.7948 1.38298 30.502 1.38298H25.975C25.6823 1.38298 25.445 1.6203 25.445 1.91301V2.133H23.8911C23.2568 2.13403 22.6372 1.94071 22.1154 1.57941C21.4172 1.09415 20.5864 0.835089 19.736 0.837418H16.4952C14.7964 0.83923 13.4193 2.21582 13.417 3.91488V9.72998C13.4196 11.4285 14.7967 12.8043 16.4952 12.8056ZM26.5053 2.44331H29.9723V12.4953H26.5051V2.44305L26.5053 2.44331ZM14.4771 3.91488C14.4786 2.80098 15.3816 1.89878 16.4952 1.89749H19.7368C20.3714 1.89593 20.9912 2.08952 21.5124 2.45185C22.2112 2.93607 23.0412 3.19514 23.8914 3.19384H25.4445V11.7456H23.5055C23.4227 11.7458 23.3409 11.7652 23.2671 11.8028C21.6858 12.5952 20.6889 14.2135 20.6923 15.9822V16.1484C20.7057 16.7563 20.2391 17.2674 19.6322 17.3099C19.3364 17.3187 19.0491 17.2076 18.8364 17.0016C18.6236 16.7956 18.5033 16.5122 18.5025 16.2162V13.5862C18.5036 13.2997 18.6063 13.0233 18.7921 12.8056H20.2047C20.4974 12.8056 20.7347 12.5683 20.7347 12.2756C20.7347 11.9829 20.4974 11.7456 20.2047 11.7456H16.4944C15.3816 11.745 14.4789 10.8444 14.4763 9.73127L14.4771 3.91488Z" fill="white"/>
<path d="M27.6599 5.68161C27.9529 5.68161 28.19 5.44428 28.19 5.15158V3.81226C28.19 3.51955 27.9529 3.28223 27.6599 3.28223C27.3672 3.28223 27.1299 3.51955 27.1299 3.81226V5.15158C27.1299 5.44428 27.3672 5.68161 27.6599 5.68161Z" fill="white"/>
</g>
<defs>
<clipPath id="clip0_8_2285">
<rect width="31.325" height="31.325" fill="white" transform="translate(0.398438 0.837402)"/>
</clipPath>
</defs>
</svg>
