<svg width="16" height="16" viewBox="0 0 16 16" fill="none" xmlns="http://www.w3.org/2000/svg">
<g id="comment (1) 1" clip-path="url(#clip0_1_667)">
<g id="Speech Bubble 48">
<g id="Group">
<path id="Vector" d="M2.32892 15.0441H1.19521L1.99688 14.2424C2.42913 13.8102 2.69906 13.248 2.77163 12.6381C1.64367 11.8979 0.818867 10.924 0.377348 9.80716C-0.0638584 8.69117 -0.119303 7.46266 0.217026 6.25441C0.62057 4.80462 1.56707 3.4832 2.88211 2.53351C4.31113 1.50154 6.09011 0.956055 8.02674 0.956055C10.4664 0.956055 12.5227 1.65698 13.9734 2.98301C15.2803 4.17764 16 5.78903 16 7.52039C16 8.36154 15.8287 9.17999 15.491 9.95302C15.1414 10.7529 14.6296 11.4652 13.9697 12.0699C12.5171 13.4012 10.462 14.1049 8.02671 14.1049C7.12267 14.1049 6.1793 13.9842 5.33706 13.7627C4.53983 14.5806 3.45953 15.0441 2.32892 15.0441ZM8.02674 1.89526C4.14349 1.89526 1.7607 4.21111 1.12182 6.50627C0.518103 8.6752 1.40806 10.7246 3.50248 11.9886L3.7365 12.1298L3.7293 12.403C3.71502 12.9438 3.5861 13.4647 3.35534 13.9355C3.91726 13.7454 4.42716 13.4007 4.82644 12.929L5.02499 12.6944L5.31943 12.7825C6.14571 13.0296 7.10717 13.1657 8.02674 13.1657C12.8596 13.1657 15.0608 10.2393 15.0608 7.52039C15.0608 6.05599 14.4496 4.69076 13.3397 3.67623C12.0651 2.51112 10.2279 1.89526 8.02674 1.89526Z" fill="white"/>
</g>
</g>
</g>
<defs>
<clipPath id="clip0_1_667">
<rect width="16" height="16" fill="white"/>
</clipPath>
</defs>
</svg>
