<svg width="32" height="32" viewBox="0 0 32 32" fill="none" xmlns="http://www.w3.org/2000/svg">
<g clip-path="url(#clip0_29_483)">
<path d="M23.4644 4.825H23.8926V5.25327C23.8926 5.59118 24.1666 5.86509 24.5044 5.86509C24.8423 5.86509 25.1163 5.59118 25.1163 5.25327V4.825H25.5445C25.8824 4.825 26.1564 4.55109 26.1564 4.21319C26.1564 3.87528 25.8824 3.60137 25.5445 3.60137H25.1163V3.1731C25.1163 2.83519 24.8423 2.56128 24.5044 2.56128C24.1666 2.56128 23.8926 2.83519 23.8926 3.1731V3.60137H23.4644C23.1265 3.60137 22.8525 3.87528 22.8525 4.21319C22.8525 4.55109 23.1265 4.825 23.4644 4.825Z" fill="white"/>
<path d="M4.7125 19.9352H4.28423V19.507C4.28423 19.1691 4.01026 18.8951 3.67241 18.8951C3.33457 18.8951 3.0606 19.1691 3.0606 19.507V19.9352H2.63232C2.29448 19.9352 2.02051 20.2091 2.02051 20.547C2.02051 20.885 2.29448 21.1589 2.63232 21.1589H3.0606V21.5871C3.0606 21.925 3.33457 22.199 3.67241 22.199C4.01026 22.199 4.28423 21.925 4.28423 21.5871V21.1589H4.7125C5.05035 21.1589 5.32432 20.885 5.32432 20.547C5.32432 20.2091 5.05035 19.9352 4.7125 19.9352Z" fill="white"/>
<path d="M30.4889 20.9753H30.0606V20.547C30.0606 20.2091 29.7866 19.9352 29.4488 19.9352C29.1109 19.9352 28.837 20.2091 28.837 20.547V20.9753H28.4087C28.0708 20.9753 27.7969 21.2492 27.7969 21.5871C27.7969 21.925 28.0708 22.1989 28.4087 22.1989H28.837V22.6272C28.837 22.9651 29.1109 23.239 29.4488 23.239C29.7866 23.239 30.0606 22.9651 30.0606 22.6272V22.1989H30.4889C30.8267 22.1989 31.1007 21.925 31.1007 21.5871C31.1007 21.2492 30.8268 20.9753 30.4889 20.9753Z" fill="white"/>
<path d="M23.8748 18.5037L30.0021 14.0724C30.9484 13.3879 31.3275 12.2277 30.9678 11.1166C30.6081 10.0054 29.621 9.28746 28.4531 9.28746H20.8901L18.5757 2.1278C18.2163 1.016 17.2291 0.297607 16.0607 0.297607C14.8922 0.297607 13.905 1.016 13.5456 2.1278L11.2313 9.2874H3.66818C2.50029 9.2874 1.51318 10.0054 1.15349 11.1165C0.793745 12.2277 1.17283 13.3879 2.11919 14.0723L8.24647 18.5036L5.90144 25.6679C5.46687 26.9956 6.11215 28.1613 7.02321 28.7362V31.0108C7.02321 31.3487 7.29718 31.6226 7.63502 31.6226H13.3075C13.6453 31.6226 13.9193 31.3487 13.9193 31.0108C13.9193 30.6729 13.6453 30.399 13.3075 30.399H8.24684V28.4922C8.24684 26.645 9.74965 25.1423 11.5967 25.1423H13.9161L15.5038 28.6295C15.6032 28.8477 15.8209 28.9878 16.0607 28.9878C16.3004 28.9878 16.5181 28.8477 16.6175 28.6295L18.2053 25.1422H20.5247C22.3717 25.1422 23.8745 26.645 23.8745 28.4921V30.399H18.8138C18.476 30.399 18.202 30.6729 18.202 31.0108C18.202 31.3487 18.476 31.6226 18.8138 31.6226H24.4864C24.8242 31.6226 25.0982 31.3487 25.0982 31.0108V28.7362C26.0092 28.1613 26.6545 26.9956 26.2199 25.6679L23.8748 18.5037ZM13.1707 18.2705H17.4088C17.9648 18.2705 18.489 18.1332 18.9506 17.8919V19.2646C18.9506 21.133 17.7353 22.4891 16.0607 22.4891C14.4672 22.4891 13.1708 21.1926 13.1708 19.5991V18.2705H13.1707ZM19.526 14.9296C19.526 16.0971 18.5762 17.0468 17.4088 17.0468H13.1707V16.135C13.1707 14.9675 14.1205 14.0178 15.2879 14.0178H19.526V14.9296ZM16.0607 26.8995L14.9216 24.3978V23.5511C15.2836 23.6556 15.6655 23.7128 16.0607 23.7128C16.4591 23.7128 16.8404 23.6564 17.1997 23.5522V24.3978L16.0607 26.8995ZM24.9215 27.2366C24.3743 25.3235 22.611 23.9186 20.5247 23.9186H18.4234V22.9507C19.4961 22.1646 20.1742 20.8344 20.1742 19.2646V16.8019C20.5372 16.2674 20.7496 15.6229 20.7496 14.9296V13.4059C20.7496 13.068 20.4756 12.7941 20.1378 12.7941H15.2878C13.4457 12.7941 11.947 14.2928 11.947 16.1349V19.599C11.947 20.9884 12.6401 22.2182 13.6979 22.9633V23.9185H11.5967C9.51024 23.9185 7.74692 25.3234 7.19978 27.2365C6.99555 26.9152 6.91565 26.5026 7.06432 26.0485L9.54836 18.4598C9.63114 18.207 9.54102 17.9296 9.32541 17.7737L2.83636 13.0809C2.21946 12.6347 2.16397 11.9683 2.31766 11.4934C2.47135 11.0185 2.9069 10.5111 3.66818 10.5111H11.6765C11.9419 10.5111 12.177 10.34 12.2587 10.0875L14.71 2.50425C14.9442 1.77949 15.5613 1.52124 16.0607 1.52124C16.56 1.52124 17.1771 1.77949 17.4114 2.50413L19.8626 10.0874C19.9443 10.3399 20.1794 10.511 20.4448 10.511H28.4531C29.2144 10.511 29.65 11.0185 29.8037 11.4934C29.9574 11.9683 29.9019 12.6347 29.285 13.0808L22.7958 17.7738C22.5803 17.9297 22.4902 18.2071 22.5729 18.4599L25.0569 26.0486C25.2056 26.5026 25.1257 26.9153 24.9215 27.2366Z" fill="white"/>
<path d="M16.061 30.399C15.9001 30.399 15.7423 30.4645 15.6285 30.5783C15.5147 30.6921 15.4492 30.85 15.4492 31.0109C15.4492 31.1718 15.5146 31.3296 15.6285 31.4434C15.7423 31.5572 15.9001 31.6227 16.061 31.6227C16.2219 31.6227 16.3798 31.5572 16.4935 31.4434C16.6073 31.3296 16.6729 31.1718 16.6729 31.0109C16.6729 30.85 16.6074 30.6921 16.4935 30.5783C16.3798 30.4645 16.2219 30.399 16.061 30.399Z" fill="white"/>
</g>
<defs>
<clipPath id="clip0_29_483">
<rect width="31.325" height="31.325" fill="white" transform="translate(0.398438 0.297607)"/>
</clipPath>
</defs>
</svg>
