<svg width="18" height="20" viewBox="0 0 18 20" fill="none" xmlns="http://www.w3.org/2000/svg">
<path d="M16.339 7.69217L4.52645 0.410714C3.67184 -0.115419 2.6386 -0.137294 1.76246 0.352199C0.886329 0.841614 0.363281 1.73306 0.363281 2.73662V17.2332C0.363281 18.7506 1.58594 19.9918 3.08868 20C3.09278 20 3.09688 20 3.1009 20C3.57051 20 4.05989 19.8528 4.51696 19.5739C4.88466 19.3495 5.00087 18.8696 4.77653 18.502C4.5522 18.1342 4.07219 18.0181 3.70462 18.2424C3.49083 18.3728 3.28204 18.4402 3.09708 18.4402C2.53008 18.4371 1.92301 17.9514 1.92301 17.2332V2.73666C1.92301 2.30615 2.14739 1.92384 2.52317 1.71388C2.89899 1.50392 3.34215 1.51329 3.70829 1.73872L15.5208 9.02018C15.8759 9.23878 16.0791 9.60327 16.0782 10.0202C16.0773 10.4371 15.8727 10.8008 15.5157 11.0187L6.97517 16.2479C6.60782 16.4728 6.49236 16.9529 6.71728 17.3202C6.94216 17.6876 7.42228 17.8031 7.78962 17.5781L16.3291 12.3495C17.1468 11.8507 17.636 10.9812 17.638 10.0233C17.64 9.06561 17.1542 8.19405 16.339 7.69217Z" fill="white"/>
</svg>
