<svg width="116" height="41" viewBox="0 0 116 41" fill="none" xmlns="http://www.w3.org/2000/svg">
<path d="M25.15 7.90012C22.05 8.20012 19.6 9.30012 17.8 11.2001C16 13.1001 14.75 16.2001 14.05 20.5001H22.9L19.6 39.2501H0.850001L4.15 20.5001C6.55 7.80012 14 1.00012 26.5 0.100118L25.15 7.90012ZM50.65 7.90012C47.55 8.20012 45.1 9.30012 43.3 11.2001C41.5 13.1001 40.25 16.2001 39.55 20.5001H48.4L45.1 39.2501H26.35L29.65 20.5001C32.05 7.80012 39.5 1.00012 52 0.100118L50.65 7.90012ZM71.4707 1.00011H90.2207L86.9207 19.7501C84.5207 32.4501 77.0707 39.2501 64.5707 40.1501L65.9207 32.3501C69.0207 32.0501 71.4707 30.9501 73.2707 29.0501C75.0707 27.1501 76.3207 24.0501 77.0207 19.7501H68.1707L71.4707 1.00011ZM96.9707 1.00011H115.721L112.421 19.7501C110.221 32.5501 102.771 39.3501 90.0707 40.1501L91.4207 32.3501C94.5207 32.1501 96.9707 31.1001 98.7707 29.2001C100.571 27.3001 101.871 24.1501 102.671 19.7501H93.6707L96.9707 1.00011Z" fill="#161B29"/>
</svg>
