<svg width="32" height="33" viewBox="0 0 32 33" fill="none" xmlns="http://www.w3.org/2000/svg">
<g clip-path="url(#clip0_8_2164)">
<path d="M7.97606 5.0677H6.8628C7.03025 3.82798 7.71573 3.76569 8.03118 3.737C8.34633 3.7083 8.58757 3.44412 8.58757 3.12769V1.29683C8.58757 1.12864 8.51831 0.967791 8.39607 0.852219C8.27383 0.736647 8.10925 0.67675 7.94143 0.685989C6.00748 0.79477 3.70215 1.77123 3.70215 5.80543V8.98932C3.70215 9.52081 4.13452 9.95318 4.666 9.95318H7.97612C8.5076 9.95318 8.93998 9.52075 8.93991 8.98926V6.03156C8.93991 5.50007 8.50754 5.0677 7.97606 5.0677ZM7.71634 8.72949H4.92578V5.80543C4.92578 2.99046 6.17762 2.20427 7.36393 1.98237V2.62563C6.54465 2.87501 5.60172 3.61151 5.60172 5.67952C5.60172 6.01742 5.87563 6.29133 6.21354 6.29133H7.71634V8.72949Z" fill="white"/>
<path d="M14.231 5.0677H13.1177C13.2851 3.82798 13.9706 3.76569 14.2861 3.737C14.6012 3.7083 14.8425 3.44412 14.8425 3.12769V1.29683C14.8425 1.12864 14.7732 0.967791 14.651 0.852219C14.5287 0.736647 14.364 0.67675 14.1963 0.685989C12.2624 0.79477 9.95703 1.77123 9.95703 5.80543V8.98932C9.95703 9.52081 10.3894 9.95318 10.9209 9.95318H14.231C14.7625 9.95318 15.1949 9.52075 15.1949 8.9892V6.03156C15.1949 5.50007 14.7625 5.0677 14.231 5.0677ZM13.9712 8.72955H11.1807V5.80543C11.1807 2.99046 12.4325 2.20427 13.6188 1.98237V2.62563C12.7995 2.87501 11.8566 3.61151 11.8566 5.67952C11.8566 6.01742 12.1305 6.29133 12.4684 6.29133H13.9712V8.72955Z" fill="white"/>
<path d="M17.8393 5.6275C17.7255 5.51371 17.5676 5.44824 17.4067 5.44824C17.2458 5.44824 17.088 5.51371 16.9742 5.6275C16.8604 5.7413 16.7949 5.89915 16.7949 6.06006C16.7949 6.22097 16.8604 6.37882 16.9742 6.49261C17.088 6.60641 17.2458 6.67188 17.4067 6.67188C17.5676 6.67188 17.7255 6.60641 17.8393 6.49261C17.9531 6.37882 18.0186 6.22097 18.0186 6.06006C18.0186 5.89915 17.9531 5.7413 17.8393 5.6275Z" fill="white"/>
<path d="M20.8495 5.44824H20.0785C19.7406 5.44824 19.4667 5.72215 19.4667 6.06006C19.4667 6.39797 19.7406 6.67188 20.0785 6.67188H20.8495C26.1707 6.67188 30.4998 11.001 30.4998 16.3222C30.4998 20.8639 27.2787 24.8358 22.8407 25.7666C22.5574 25.826 22.3545 26.0759 22.3545 26.3653V29.9202L18.586 26.1518C18.4713 26.0371 18.3157 25.9726 18.1534 25.9726H11.2724C5.95123 25.9726 1.62207 21.6435 1.62207 16.3222C1.62207 14.6823 2.04074 13.0629 2.83286 11.6389C2.99719 11.3436 2.89092 10.9711 2.59566 10.8068C2.30033 10.6425 1.9278 10.7488 1.76358 11.044C0.870454 12.6494 0.398438 14.4746 0.398438 16.3222C0.398438 22.3182 5.27645 27.1963 11.2724 27.1963H17.9L22.5337 31.8299C22.6507 31.947 22.8072 32.0091 22.9664 32.0091C23.0452 32.0091 23.1247 31.9939 23.2004 31.9625C23.429 31.8678 23.5781 31.6448 23.5781 31.3973V26.8502C25.7918 26.2766 27.7935 25.0001 29.2562 23.2195C30.8472 21.2827 31.7235 18.8332 31.7235 16.3222C31.7235 10.3263 26.8455 5.4483 20.8495 5.44824Z" fill="white"/>
<path d="M23.5902 11.5435H8.53174C8.19383 11.5435 7.91992 11.8174 7.91992 12.1553C7.91992 12.4932 8.19383 12.7671 8.53174 12.7671H23.5901C23.9281 12.7671 24.202 12.4932 24.202 12.1553C24.202 11.8174 23.9281 11.5435 23.5902 11.5435Z" fill="white"/>
<path d="M23.5902 14.8062H8.53174C8.19383 14.8062 7.91992 15.0801 7.91992 15.418C7.91992 15.7559 8.19383 16.0298 8.53174 16.0298H23.5901C23.9281 16.0298 24.202 15.7559 24.202 15.418C24.202 15.0801 23.9281 14.8062 23.5902 14.8062Z" fill="white"/>
<path d="M23.5902 18.0693H8.53174C8.19383 18.0693 7.91992 18.3433 7.91992 18.6812C7.91992 19.019 8.19383 19.293 8.53174 19.293H23.5901C23.9281 19.293 24.202 19.019 24.202 18.6812C24.202 18.3433 23.9281 18.0693 23.5902 18.0693Z" fill="white"/>
<path d="M23.5905 21.3325H15.564C15.2261 21.3325 14.9521 21.6065 14.9521 21.9443C14.9521 22.2822 15.2261 22.5562 15.564 22.5562H23.5905C23.9284 22.5562 24.2023 22.2822 24.2023 21.9443C24.2023 21.6065 23.9284 21.3325 23.5905 21.3325Z" fill="white"/>
<path d="M12.1207 21.332H12.1108C11.7729 21.332 11.499 21.606 11.499 21.9438C11.499 22.2817 11.7729 22.5557 12.1108 22.5557H12.1207C12.4586 22.5557 12.7325 22.2817 12.7325 21.9438C12.7325 21.606 12.4586 21.332 12.1207 21.332Z" fill="white"/>
</g>
<defs>
<clipPath id="clip0_8_2164">
<rect width="31.325" height="31.325" fill="white" transform="translate(0.398438 0.684082)"/>
</clipPath>
</defs>
</svg>
