<svg width="19" height="19" viewBox="0 0 19 19" fill="none" xmlns="http://www.w3.org/2000/svg">
<g id="settings 1" clip-path="url(#clip0_8_2161)">
<path id="Vector" d="M17.8565 7.5058L16.4585 7.20189C16.3369 6.82972 16.1864 6.4667 16.0086 6.117L16.7825 4.91318C16.9207 4.69808 16.8904 4.41569 16.7097 4.23501L14.5318 2.05717C14.3512 1.8765 14.0688 1.8461 13.8537 1.98432L12.6499 2.75823C12.3002 2.58047 11.9371 2.42991 11.565 2.30834L11.2611 0.910385C11.2068 0.660601 10.9856 0.482422 10.73 0.482422H7.65015C7.39454 0.482422 7.17334 0.660601 7.11908 0.910385L6.81518 2.30834C6.443 2.42991 6.07998 2.58047 5.73028 2.75823L4.52646 1.98432C4.31137 1.8461 4.02897 1.8765 3.84829 2.05717L1.67045 4.23501C1.48978 4.41569 1.45939 4.69808 1.5976 4.91318L2.37151 6.117C2.19375 6.4667 2.04319 6.82972 1.92163 7.20189L0.523667 7.5058C0.273883 7.56019 0.0957031 7.78125 0.0957031 8.03687V11.1167C0.0957031 11.3723 0.273883 11.5934 0.523667 11.6478L1.92163 11.9517C2.04319 12.3239 2.19375 12.6869 2.37151 13.0366L1.5976 14.2404C1.45939 14.4555 1.48978 14.7379 1.67045 14.9186L3.84829 17.0964C4.02897 17.2771 4.31137 17.3075 4.52646 17.1693L5.73028 16.3953C6.07998 16.5731 6.443 16.7237 6.81518 16.8452L7.11908 18.2432C7.17334 18.493 7.39454 18.6712 7.65015 18.6712H10.73C10.9856 18.6712 11.2068 18.493 11.2611 18.2432L11.565 16.8452C11.9371 16.7237 12.3002 16.5731 12.6499 16.3953L13.8537 17.1693C14.0688 17.3075 14.3512 17.2772 14.5318 17.0964L16.7097 14.9186C16.8904 14.7379 16.9207 14.4555 16.7825 14.2404L16.0086 13.0366C16.1864 12.6869 16.3369 12.3239 16.4585 11.9517L17.8565 11.6478C18.1063 11.5934 18.2844 11.3723 18.2844 11.1167V8.03687C18.2844 7.78125 18.1063 7.56019 17.8565 7.5058ZM12.451 9.57679C12.451 11.3748 10.9881 12.8377 9.19007 12.8377C7.39204 12.8377 5.92913 11.3748 5.92913 9.57679C5.92913 7.77876 7.39204 6.31585 9.19007 6.31585C10.9881 6.31585 12.451 7.77876 12.451 9.57679Z" fill="white"/>
</g>
<defs>
<clipPath id="clip0_8_2161">
<rect width="18.1887" height="18.1887" fill="white" transform="translate(0.0957031 0.482422)"/>
</clipPath>
</defs>
</svg>
