<svg width="54" height="54" viewBox="0 0 54 54" fill="none" xmlns="http://www.w3.org/2000/svg">
<rect width="54" height="54" rx="10" fill="#1DA1F2"/>
<path d="M33.7402 24.1719C33.7624 24.2604 33.7734 24.4043 33.7734 24.6035C33.7734 25.7767 33.5521 26.9499 33.1094 28.123C32.6667 29.2741 32.0358 30.3366 31.2168 31.3105C30.4199 32.2624 29.3796 33.0371 28.0957 33.6348C26.8118 34.2324 25.3952 34.5312 23.8457 34.5312C21.8978 34.5312 20.1159 34.0111 18.5 32.9707C18.7435 32.9928 19.0202 33.0039 19.3301 33.0039C20.946 33.0039 22.3958 32.5059 23.6797 31.5098C22.9049 31.5098 22.2188 31.2884 21.6211 30.8457C21.0456 30.3809 20.6471 29.8053 20.4258 29.1191C20.6471 29.1413 20.8574 29.1523 21.0566 29.1523C21.3665 29.1523 21.6764 29.1191 21.9863 29.0527C21.4551 28.9421 20.9792 28.7207 20.5586 28.3887C20.138 28.0566 19.806 27.6582 19.5625 27.1934C19.319 26.7064 19.1973 26.1862 19.1973 25.6328V25.5664C19.6842 25.8542 20.2044 26.0091 20.7578 26.0312C19.7174 25.3229 19.1973 24.349 19.1973 23.1094C19.1973 22.4896 19.3633 21.903 19.6953 21.3496C20.5586 22.4342 21.61 23.2975 22.8496 23.9395C24.1113 24.5814 25.4505 24.9355 26.8672 25.002C26.8229 24.7363 26.8008 24.4707 26.8008 24.2051C26.8008 23.2533 27.1328 22.4342 27.7969 21.748C28.4831 21.0618 29.3021 20.7188 30.2539 20.7188C31.2721 20.7188 32.1243 21.084 32.8105 21.8145C33.6074 21.6595 34.349 21.3828 35.0352 20.9844C34.7695 21.8034 34.2604 22.4453 33.5078 22.9102C34.1719 22.8216 34.8359 22.6335 35.5 22.3457C35.013 23.054 34.4264 23.6628 33.7402 24.1719Z" fill="white"/>
</svg>
