<svg width="54" height="54" viewBox="0 0 54 54" fill="none" xmlns="http://www.w3.org/2000/svg">
<rect width="54" height="54" rx="10" fill="#4D7198"/>
<path d="M34.5332 23.043C34.4668 23.375 34.2012 23.9173 33.7363 24.6699C33.2936 25.4225 32.8841 26.0866 32.5078 26.6621C32.1315 27.2155 31.9323 27.5033 31.9102 27.5254C31.7773 27.7246 31.7109 27.8685 31.7109 27.957C31.7109 28.0456 31.7773 28.2005 31.9102 28.4219C31.9102 28.4219 31.9766 28.4993 32.1094 28.6543C32.2643 28.8092 32.4414 28.9863 32.6406 29.1855C32.8398 29.3848 33.0612 29.6172 33.3047 29.8828C33.5482 30.1484 33.7695 30.4141 33.9688 30.6797C34.1901 30.9232 34.3783 31.1777 34.5332 31.4434C34.7103 31.709 34.832 31.9303 34.8984 32.1074C35.0534 32.6608 34.832 32.9375 34.2344 32.9375H32.2754C32.1204 32.9375 31.9876 32.9154 31.877 32.8711C31.7663 32.8268 31.6445 32.7493 31.5117 32.6387C31.3789 32.528 31.2572 32.4062 31.1465 32.2734C31.0358 32.1406 30.8698 31.9525 30.6484 31.709C30.4271 31.4655 30.2057 31.2331 29.9844 31.0117C29.099 30.1706 28.446 29.75 28.0254 29.75C27.7598 29.75 27.6048 29.8275 27.5605 29.9824C27.5163 30.1374 27.4941 30.5801 27.4941 31.3105C27.5163 31.6647 27.5273 31.9525 27.5273 32.1738C27.5273 32.4395 27.4388 32.6387 27.2617 32.7715C27.0846 32.8822 26.6973 32.9375 26.0996 32.9375C25.0592 32.9375 24.0078 32.6276 22.9453 32.0078C21.8828 31.388 20.9531 30.5026 20.1562 29.3516C19.4036 28.3333 18.7728 27.3262 18.2637 26.3301C17.7767 25.3118 17.4557 24.5371 17.3008 24.0059C17.1458 23.4746 17.0684 23.0983 17.0684 22.877C17.0684 22.5007 17.2897 22.3125 17.7324 22.3125H19.6914C19.9349 22.3125 20.112 22.3678 20.2227 22.4785C20.3555 22.5892 20.4661 22.7884 20.5547 23.0762C21.0195 24.4264 21.584 25.6328 22.248 26.6953C22.9342 27.7578 23.4544 28.2891 23.8086 28.2891C23.9414 28.2891 24.0299 28.2448 24.0742 28.1562C24.1406 28.0456 24.1738 27.8464 24.1738 27.5586V24.6699C24.1517 24.36 24.0964 24.0944 24.0078 23.873C23.9193 23.6517 23.8307 23.4967 23.7422 23.4082C23.6536 23.2975 23.5651 23.1868 23.4766 23.0762C23.4102 22.9655 23.377 22.8659 23.377 22.7773C23.377 22.6888 23.3991 22.6113 23.4434 22.5449C23.4876 22.4785 23.543 22.4232 23.6094 22.3789C23.6979 22.3346 23.7865 22.3125 23.875 22.3125H26.9629C27.3171 22.3125 27.4941 22.556 27.4941 23.043V26.8945C27.4941 27.2708 27.5938 27.459 27.793 27.459C28.0143 27.459 28.3242 27.2598 28.7227 26.8613C29.1432 26.3965 29.5527 25.832 29.9512 25.168C30.3496 24.5039 30.6484 23.9505 30.8477 23.5078L31.1465 22.877C31.3014 22.5007 31.5781 22.3125 31.9766 22.3125H33.9355C34.4668 22.3125 34.666 22.556 34.5332 23.043Z" fill="white"/>
</svg>
