<svg width="54" height="54" viewBox="0 0 54 54" fill="none" xmlns="http://www.w3.org/2000/svg">
<rect width="54" height="54" rx="10" fill="#FF0000"/>
<path d="M35.6992 23.2422C35.7656 23.5078 35.821 23.8398 35.8652 24.2383C35.9316 24.6367 35.9759 25.0352 35.998 25.4336C36.0202 25.8099 36.0312 26.1641 36.0312 26.4961C36.0534 26.8281 36.0645 27.1048 36.0645 27.3262V27.625C36.0645 29.6172 35.9427 31.0892 35.6992 32.041C35.5885 32.4173 35.3893 32.7493 35.1016 33.0371C34.8138 33.3249 34.4707 33.5241 34.0723 33.6348C33.6517 33.7454 32.8548 33.834 31.6816 33.9004C30.5085 33.9447 29.4349 33.9779 28.4609 34H27C23.2148 34 20.8574 33.8783 19.9277 33.6348C19.0645 33.3913 18.5221 32.86 18.3008 32.041C18.1901 31.6204 18.1016 31.0449 18.0352 30.3145C17.9909 29.5618 17.9577 28.931 17.9355 28.4219V27.625C17.9355 25.6549 18.0573 24.194 18.3008 23.2422C18.4115 22.8438 18.6107 22.5007 18.8984 22.2129C19.1862 21.9251 19.5293 21.7259 19.9277 21.6152C20.3483 21.5046 21.1452 21.4271 22.3184 21.3828C23.4915 21.3164 24.5651 21.2721 25.5391 21.25H27C30.7852 21.25 33.1426 21.3717 34.0723 21.6152C34.4707 21.7259 34.8138 21.9251 35.1016 22.2129C35.3893 22.5007 35.5885 22.8438 35.6992 23.2422ZM25.1406 30.3477L29.8887 27.625L25.1406 24.9355V30.3477Z" fill="white"/>
</svg>
